<svg width="36" height="36" viewBox="0 0 36 36" fill="none" xmlns="http://www.w3.org/2000/svg">
<g clip-path="url(#clip0_2_2547)">
<path fill-rule="evenodd" clip-rule="evenodd" d="M25.2643 1.64054C25.7349 -0.509177 28.7975 -0.522034 29.2886 1.62511L29.3092 1.72539L29.3555 1.92597C29.9212 4.32768 31.8652 6.16111 34.2977 6.58539C36.54 6.97625 36.54 10.1957 34.2977 10.5865C33.1015 10.7947 31.9935 11.3517 31.1129 12.1876C30.2322 13.0234 29.6181 14.1008 29.3477 15.2845L29.286 15.5468C28.7975 17.694 25.7375 17.6811 25.2643 15.5314L25.2155 15.3051C24.9559 14.1168 24.3481 13.0327 23.4696 12.1914C22.5911 11.35 21.4819 10.7895 20.2835 10.5814C18.0463 10.1931 18.0463 6.97882 20.2835 6.59054C21.4776 6.3833 22.5833 5.82618 23.4604 4.98981C24.3375 4.15343 24.9466 3.07546 25.2103 1.89254L25.2463 1.72282L25.2643 1.64054ZM27.1337 19.944C25.9085 19.9201 24.7374 19.4343 23.8552 18.5837C23.6613 18.7115 23.4922 18.8736 23.3563 19.062C22.1992 20.5945 20.844 22.1605 19.3115 23.6905C18.1492 24.8528 16.9715 25.9097 15.8092 26.8534C14.6469 25.9097 13.4692 24.8528 12.3069 23.6905C11.1932 22.5791 10.1375 21.411 9.14402 20.1908C10.0877 19.026 11.1472 17.8508 12.3069 16.6885C13.7549 15.2354 15.3014 13.8839 16.9355 12.6437C17.1061 12.5214 17.2555 12.372 17.3777 12.2014C16.8889 11.7557 16.4973 11.2139 16.2274 10.61C15.9575 10.006 15.8151 9.35288 15.8092 8.69139C13.2866 6.92482 10.7923 5.61597 8.56545 4.93454C6.15345 4.19654 3.32488 3.99854 1.47088 5.84997C0.270025 7.05339 -0.0565461 8.68882 0.0360253 10.2445C0.128597 11.8028 0.650597 13.5154 1.44003 15.2537C2.24533 16.9833 3.20674 18.6359 4.31231 20.1908C3.20701 21.7441 2.24561 23.395 1.44003 25.1228C0.650597 26.8611 0.128597 28.5737 0.0360253 30.132C-0.0565461 31.6877 0.267454 33.3231 1.47088 34.5265C2.67431 35.7274 4.30974 36.054 5.86545 35.9614C7.42117 35.8662 9.13631 35.3468 10.8746 34.5574C12.4432 33.8451 14.112 32.8731 15.8117 31.6851C17.5089 32.8731 19.1752 33.8451 20.7463 34.5574C22.482 35.3468 24.1972 35.8688 25.7555 35.9614C27.3112 36.054 28.944 35.7274 30.1475 34.524C32.0015 32.6725 31.8035 29.844 31.0655 27.432C30.3609 25.1331 28.9903 22.5488 27.1337 19.944ZM7.4366 8.62197C8.91774 9.07454 10.6843 9.9334 12.5975 11.178C10.5087 12.9501 8.56849 14.8903 6.79631 16.9791C6.0999 15.9187 5.48279 14.8082 4.95003 13.6568C4.27374 12.1654 3.94203 10.9311 3.88545 10.0131C3.83145 9.08997 4.05774 8.71968 4.19917 8.57825C4.4306 8.34682 5.28431 7.96625 7.4366 8.62197ZM4.95003 26.7223C5.42317 25.6808 6.04288 24.5623 6.79631 23.4C8.56935 25.4888 10.5104 27.429 12.6 29.2011C11.5405 29.8983 10.4309 30.5162 9.28031 31.05C7.78888 31.7262 6.5546 32.058 5.6366 32.1145C4.71088 32.1685 4.34317 31.9422 4.20174 31.8008C4.06031 31.6594 3.83403 31.2865 3.88803 30.366C3.9446 29.448 4.27374 28.2137 4.9526 26.7223H4.95003ZM22.3406 31.05C21.1905 30.5169 20.0817 29.8989 19.0235 29.2011C21.1104 27.4287 23.0489 25.4885 24.8195 23.4C26.0615 25.3157 26.9203 27.0823 27.3729 28.5634C28.0312 30.7131 27.6506 31.5694 27.4192 31.8008C27.2752 31.9422 26.9049 32.1685 25.9843 32.112C25.0637 32.0605 23.832 31.7262 22.3406 31.05ZM13.2377 20.1908C13.2377 19.5088 13.5087 18.8548 13.9909 18.3725C14.4731 17.8903 15.1272 17.6194 15.8092 17.6194C16.4912 17.6194 17.1452 17.8903 17.6274 18.3725C18.1097 18.8548 18.3806 19.5088 18.3806 20.1908C18.3806 20.8728 18.1097 21.5269 17.6274 22.0091C17.1452 22.4913 16.4912 22.7623 15.8092 22.7623C15.1272 22.7623 14.4731 22.4913 13.9909 22.0091C13.5087 21.5269 13.2377 20.8728 13.2377 20.1908Z" fill="#2563EB"/>
</g>
<defs>
<clipPath id="clip0_2_2547">
<rect width="36" height="36" fill="white"/>
</clipPath>
</defs>
</svg>
