<svg width="64" height="65" viewBox="0 0 64 65" fill="none" xmlns="http://www.w3.org/2000/svg">
<path d="M21.3333 29.8336C22.0889 29.8336 22.7227 29.5776 23.2347 29.0656C23.7467 28.5536 24.0018 27.9207 24 27.167C23.9982 26.4132 23.7422 25.7803 23.232 25.2683C22.7218 24.7563 22.0889 24.5003 21.3333 24.5003C20.5778 24.5003 19.9449 24.7563 19.4347 25.2683C18.9245 25.7803 18.6685 26.4132 18.6667 27.167C18.6649 27.9207 18.9209 28.5545 19.4347 29.0683C19.9485 29.5821 20.5813 29.8372 21.3333 29.8336ZM32 29.8336C32.7556 29.8336 33.3893 29.5776 33.9013 29.0656C34.4133 28.5536 34.6685 27.9207 34.6667 27.167C34.6649 26.4132 34.4089 25.7803 33.8987 25.2683C33.3885 24.7563 32.7556 24.5003 32 24.5003C31.2445 24.5003 30.6116 24.7563 30.1013 25.2683C29.5911 25.7803 29.3351 26.4132 29.3333 27.167C29.3316 27.9207 29.5876 28.5545 30.1013 29.0683C30.6151 29.5821 31.248 29.8372 32 29.8336ZM42.6667 29.8336C43.4222 29.8336 44.056 29.5776 44.568 29.0656C45.08 28.5536 45.3351 27.9207 45.3333 27.167C45.3316 26.4132 45.0756 25.7803 44.5653 25.2683C44.0551 24.7563 43.4222 24.5003 42.6667 24.5003C41.9111 24.5003 41.2782 24.7563 40.768 25.2683C40.2578 25.7803 40.0018 26.4132 40 27.167C39.9982 27.9207 40.2542 28.5545 40.768 29.0683C41.2818 29.5821 41.9147 29.8372 42.6667 29.8336ZM5.33334 59.1669V11.167C5.33334 9.70028 5.85601 8.44517 6.90134 7.40162C7.94668 6.35806 9.20179 5.8354 10.6667 5.83362H53.3333C54.8 5.83362 56.056 6.35628 57.1013 7.40162C58.1467 8.44695 58.6685 9.70206 58.6667 11.167V43.167C58.6667 44.6336 58.1449 45.8896 57.1013 46.9349C56.0578 47.9803 54.8018 48.5021 53.3333 48.5003H16L5.33334 59.1669ZM13.7333 43.167H53.3333V11.167H10.6667V46.167L13.7333 43.167Z" fill="white"/>
</svg>
