<svg width="64" height="64" viewBox="0 0 64 64" fill="none" xmlns="http://www.w3.org/2000/svg">
<mask id="mask0_16_431" style="mask-type:alpha" maskUnits="userSpaceOnUse" x="0" y="0" width="64" height="64">
<rect width="64" height="64" fill="#D9D9D9"/>
</mask>
<g mask="url(#mask0_16_431)">
<path d="M29.3333 56V50.6667H50.6667V31.7333C50.6667 26.5333 48.8556 22.1222 45.2333 18.5C41.6111 14.8778 37.2 13.0667 32 13.0667C26.8 13.0667 22.3889 14.8778 18.7667 18.5C15.1444 22.1222 13.3333 26.5333 13.3333 31.7333V48H10.6667C9.2 48 7.94445 47.4778 6.9 46.4333C5.85556 45.3889 5.33333 44.1333 5.33333 42.6667V37.3333C5.33333 36.4 5.56667 35.5222 6.03333 34.7C6.5 33.8778 7.15556 33.2222 8 32.7333L8.2 29.2C8.55556 26.1778 9.43333 23.3778 10.8333 20.8C12.2333 18.2222 13.9889 15.9778 16.1 14.0667C18.2111 12.1556 20.6333 10.6667 23.3667 9.6C26.1 8.53333 28.9778 8 32 8C35.0222 8 37.8889 8.53333 40.6 9.6C43.3111 10.6667 45.7333 12.1444 47.8667 14.0333C50 15.9222 51.7556 18.1556 53.1333 20.7333C54.5111 23.3111 55.4 26.1111 55.8 29.1333L56 32.6C56.8444 33 57.5 33.6 57.9667 34.4C58.4333 35.2 58.6667 36.0444 58.6667 36.9333V43.0667C58.6667 43.9556 58.4333 44.8 57.9667 45.6C57.5 46.4 56.8444 47 56 47.4V50.6667C56 52.1333 55.4778 53.3889 54.4333 54.4333C53.3889 55.4778 52.1333 56 50.6667 56H29.3333ZM24 37.3333C23.2444 37.3333 22.6111 37.0778 22.1 36.5667C21.5889 36.0556 21.3333 35.4222 21.3333 34.6667C21.3333 33.9111 21.5889 33.2778 22.1 32.7667C22.6111 32.2556 23.2444 32 24 32C24.7556 32 25.3889 32.2556 25.9 32.7667C26.4111 33.2778 26.6667 33.9111 26.6667 34.6667C26.6667 35.4222 26.4111 36.0556 25.9 36.5667C25.3889 37.0778 24.7556 37.3333 24 37.3333ZM40 37.3333C39.2444 37.3333 38.6111 37.0778 38.1 36.5667C37.5889 36.0556 37.3333 35.4222 37.3333 34.6667C37.3333 33.9111 37.5889 33.2778 38.1 32.7667C38.6111 32.2556 39.2444 32 40 32C40.7556 32 41.3889 32.2556 41.9 32.7667C42.4111 33.2778 42.6667 33.9111 42.6667 34.6667C42.6667 35.4222 42.4111 36.0556 41.9 36.5667C41.3889 37.0778 40.7556 37.3333 40 37.3333ZM16.0667 33.2C15.7556 28.4889 17.1778 24.4444 20.3333 21.0667C23.4889 17.6889 27.4222 16 32.1333 16C36.0889 16 39.5667 17.2556 42.5667 19.7667C45.5667 22.2778 47.3778 25.4889 48 29.4C43.9556 29.3556 40.2333 28.2667 36.8333 26.1333C33.4333 24 30.8222 21.1111 29 17.4667C28.2889 21.0222 26.7889 24.1889 24.5 26.9667C22.2111 29.7444 19.4 31.8222 16.0667 33.2Z" fill="white"/>
</g>
</svg>
