<svg width="64" height="65" viewBox="0 0 64 65" fill="none" xmlns="http://www.w3.org/2000/svg">
<path d="M32 32.5002C29.7333 32.5002 27.8338 31.734 26.3013 30.2016C24.7689 28.6691 24.0018 26.7687 24 24.5002C24 22.278 24.7671 20.3891 26.3013 18.8336C27.8356 17.278 29.7351 16.5002 32 16.5002C34.2222 16.5002 36.1111 17.278 37.6667 18.8336C39.2222 20.3891 40 22.278 40 24.5002C40 26.7669 39.2222 28.6673 37.6667 30.2016C36.1111 31.7358 34.2222 32.502 32 32.5002ZM32 27.1669C32.7556 27.1669 33.3893 26.9109 33.9013 26.3989C34.4133 25.8869 34.6685 25.254 34.6667 24.5002C34.6649 23.7464 34.4089 23.1136 33.8987 22.6016C33.3885 22.0896 32.7556 21.8336 32 21.8336C31.2445 21.8336 30.6116 22.0896 30.1013 22.6016C29.5911 23.1136 29.3351 23.7464 29.3333 24.5002C29.3316 25.254 29.5876 25.8878 30.1013 26.4016C30.6151 26.9153 31.248 27.1704 32 27.1669ZM16 48.5002V43.4336C16 42.5002 16.2338 41.6229 16.7013 40.8016C17.1689 39.9802 17.8018 39.3242 18.6 38.8336C20.6445 37.6336 22.7893 36.7224 25.0347 36.1002C27.28 35.478 29.6018 35.1669 32 35.1669C34.3982 35.1669 36.7209 35.478 38.968 36.1002C41.2151 36.7224 43.3591 37.6336 45.4 38.8336C46.2 39.3224 46.8338 39.9784 47.3013 40.8016C47.7689 41.6247 48.0018 42.502 48 43.4336V48.5002H16ZM32 40.5002C30.1778 40.5002 28.4 40.7224 26.6667 41.1669C24.9333 41.6113 23.2889 42.278 21.7333 43.1669H42.2667C40.7111 42.278 39.0667 41.6113 37.3333 41.1669C35.6 40.7224 33.8222 40.5002 32 40.5002ZM32 43.1669H42.2667H21.7333H32ZM10.6667 59.1669C9.20001 59.1669 7.9449 58.6451 6.90134 57.6016C5.85779 56.558 5.33512 55.302 5.33334 53.8336V43.1669H10.6667V53.8336H21.3333V59.1669H10.6667ZM5.33334 21.8336V11.1669C5.33334 9.70022 5.85601 8.44511 6.90134 7.40156C7.94668 6.358 9.20179 5.83533 10.6667 5.83356H21.3333V11.1669H10.6667V21.8336H5.33334ZM42.6667 59.1669V53.8336H53.3333V43.1669H58.6667V53.8336C58.6667 55.3002 58.1449 56.5562 57.1013 57.6016C56.0578 58.6469 54.8018 59.1687 53.3333 59.1669H42.6667ZM53.3333 21.8336V11.1669H42.6667V5.83356H53.3333C54.8 5.83356 56.056 6.35622 57.1013 7.40156C58.1467 8.44689 58.6685 9.702 58.6667 11.1669V21.8336H53.3333Z" fill="white"/>
</svg>
