<svg width="64" height="65" viewBox="0 0 64 65" fill="none" xmlns="http://www.w3.org/2000/svg">
<path d="M62 31.5002C61.9974 28.8511 61.2446 26.2568 59.8288 24.0177C58.4131 21.7785 56.3922 19.9861 54 18.8477V18.5002C53.9977 15.9233 53.1659 13.4155 51.6277 11.348C50.0895 9.28052 47.9266 7.76311 45.459 7.02031C42.9914 6.27751 40.3502 6.34879 37.9263 7.2236C35.5024 8.09842 33.4245 9.73028 32 11.8777C30.5756 9.73028 28.4976 8.09842 26.0737 7.2236C23.6498 6.34879 21.0086 6.27751 18.5411 7.02031C16.0735 7.76311 13.9106 9.28052 12.3723 11.348C10.8341 13.4155 10.0023 15.9233 10 18.5002V18.8477C7.60585 19.983 5.583 21.7743 4.16653 24.0136C2.75006 26.2528 1.99814 28.8481 1.99814 31.4977C1.99814 34.1474 2.75006 36.7427 4.16653 38.9819C5.583 41.2212 7.60585 43.0125 10 44.1477V44.5002C10.0023 47.0772 10.8341 49.585 12.3723 51.6525C13.9106 53.72 16.0735 55.2374 18.5411 55.9802C21.0086 56.723 23.6498 56.6517 26.0737 55.7769C28.4976 54.9021 30.5756 53.2702 32 51.1227C33.4245 53.2702 35.5024 54.9021 37.9263 55.7769C40.3502 56.6517 42.9914 56.723 45.459 55.9802C47.9266 55.2374 50.0895 53.72 51.6277 51.6525C53.1659 49.585 53.9977 47.0772 54 44.5002V44.1477C56.3918 43.0103 58.4125 41.2187 59.8283 38.9804C61.2441 36.7422 61.997 34.1487 62 31.5002ZM22 52.5002C20.0274 52.5 18.1244 51.7709 16.6566 50.453C15.1887 49.1352 14.2596 47.3214 14.0475 45.3602C14.6943 45.4525 15.3467 45.4993 16 45.5002H18C18.5304 45.5002 19.0392 45.2895 19.4142 44.9145C19.7893 44.5394 20 44.0307 20 43.5002C20 42.9698 19.7893 42.4611 19.4142 42.086C19.0392 41.711 18.5304 41.5002 18 41.5002H16C13.6389 41.503 11.353 40.6702 9.54696 39.1494C7.74093 37.6285 6.53129 35.5176 6.13221 33.1905C5.73313 30.8634 6.17034 28.4701 7.36645 26.4344C8.56256 24.3986 10.4404 22.8518 12.6675 22.0677C13.0572 21.9298 13.3945 21.6745 13.6332 21.3369C13.8718 20.9993 13.9999 20.5961 14 20.1827V18.5002C14 16.3785 14.8429 14.3437 16.3432 12.8434C17.8434 11.3431 19.8783 10.5002 22 10.5002C24.1217 10.5002 26.1566 11.3431 27.6569 12.8434C29.1572 14.3437 30 16.3785 30 18.5002V35.5652C27.8038 33.59 24.9538 32.4981 22 32.5002C21.4696 32.5002 20.9609 32.711 20.5858 33.086C20.2107 33.4611 20 33.9698 20 34.5002C20 35.0307 20.2107 35.5394 20.5858 35.9145C20.9609 36.2895 21.4696 36.5002 22 36.5002C24.1217 36.5002 26.1566 37.3431 27.6569 38.8434C29.1572 40.3437 30 42.3785 30 44.5002C30 46.622 29.1572 48.6568 27.6569 50.1571C26.1566 51.6574 24.1217 52.5002 22 52.5002ZM48 41.5002H46C45.4696 41.5002 44.9609 41.711 44.5858 42.086C44.2107 42.4611 44 42.9698 44 43.5002C44 44.0307 44.2107 44.5394 44.5858 44.9145C44.9609 45.2895 45.4696 45.5002 46 45.5002H48C48.6533 45.4993 49.3058 45.4525 49.9525 45.3602C49.7864 46.8969 49.1786 48.3525 48.2028 49.5512C47.2269 50.7498 45.9247 51.64 44.4537 52.1143C42.9826 52.5886 41.4057 52.6266 39.9135 52.2237C38.4213 51.8208 37.0778 50.9942 36.0453 49.844C35.0129 48.6937 34.3358 47.269 34.0959 45.7422C33.8559 44.2153 34.0634 42.6516 34.6933 41.2401C35.3232 39.8287 36.3484 38.6299 37.6451 37.7887C38.9418 36.9475 40.4544 36.5 42 36.5002C42.5304 36.5002 43.0392 36.2895 43.4142 35.9145C43.7893 35.5394 44 35.0307 44 34.5002C44 33.9698 43.7893 33.4611 43.4142 33.086C43.0392 32.711 42.5304 32.5002 42 32.5002C39.0462 32.4981 36.1962 33.59 34 35.5652V18.5002C34 16.3785 34.8429 14.3437 36.3432 12.8434C37.8435 11.3431 39.8783 10.5002 42 10.5002C44.1217 10.5002 46.1566 11.3431 47.6569 12.8434C49.1572 14.3437 50 16.3785 50 18.5002V20.1827C50.0001 20.5961 50.1282 20.9993 50.3669 21.3369C50.6055 21.6745 50.9428 21.9298 51.3325 22.0677C53.5596 22.8518 55.4375 24.3986 56.6336 26.4344C57.8297 28.4701 58.2669 30.8634 57.8678 33.1905C57.4687 35.5176 56.2591 37.6285 54.4531 39.1494C52.647 40.6702 50.3611 41.503 48 41.5002ZM52 28.5002C52 29.0307 51.7893 29.5394 51.4142 29.9145C51.0392 30.2895 50.5304 30.5002 50 30.5002H49C46.6131 30.5002 44.3239 29.552 42.6361 27.8642C40.9482 26.1764 40 23.8872 40 21.5002V20.5002C40 19.9698 40.2107 19.4611 40.5858 19.086C40.9609 18.711 41.4696 18.5002 42 18.5002C42.5304 18.5002 43.0392 18.711 43.4142 19.086C43.7893 19.4611 44 19.9698 44 20.5002V21.5002C44 22.8263 44.5268 24.0981 45.4645 25.0358C46.4022 25.9735 47.6739 26.5002 49 26.5002H50C50.5304 26.5002 51.0392 26.711 51.4142 27.086C51.7893 27.4611 52 27.9698 52 28.5002ZM15 30.5002H14C13.4696 30.5002 12.9609 30.2895 12.5858 29.9145C12.2107 29.5394 12 29.0307 12 28.5002C12 27.9698 12.2107 27.4611 12.5858 27.086C12.9609 26.711 13.4696 26.5002 14 26.5002H15C16.3261 26.5002 17.5979 25.9735 18.5355 25.0358C19.4732 24.0981 20 22.8263 20 21.5002V20.5002C20 19.9698 20.2107 19.4611 20.5858 19.086C20.9609 18.711 21.4696 18.5002 22 18.5002C22.5304 18.5002 23.0392 18.711 23.4142 19.086C23.7893 19.4611 24 19.9698 24 20.5002V21.5002C24 23.8872 23.0518 26.1764 21.364 27.8642C19.6761 29.552 17.387 30.5002 15 30.5002Z" fill="white"/>
</svg>
