<svg width="64" height="64" viewBox="0 0 64 64" fill="none" xmlns="http://www.w3.org/2000/svg">
<path d="M20 14.9334L13.3333 18.6667L17.0667 12L13.3333 5.33337L20 9.06671L26.6667 5.33337L22.9333 12L26.6667 18.6667L20 14.9334ZM52 41.0667L58.6667 37.3334L54.9333 44L58.6667 50.6667L52 46.9334L45.3333 50.6667L49.0667 44L45.3333 37.3334L52 41.0667ZM58.6667 5.33337L54.9333 12L58.6667 18.6667L52 14.9334L45.3333 18.6667L49.0667 12L45.3333 5.33337L52 9.06671L58.6667 5.33337ZM35.5733 34.08L42.08 27.5734L36.4267 21.92L29.92 28.4267L35.5733 34.08ZM38.32 19.44L44.56 25.68C45.6 26.6667 45.6 28.4 44.56 29.44L13.44 60.56C12.4 61.6 10.6667 61.6 9.68 60.56L3.44 54.32C2.4 53.3334 2.4 51.6 3.44 50.56L34.56 19.44C35.6 18.4 37.3333 18.4 38.32 19.44Z" fill="white"/>
</svg>
