<svg width="64" height="65" viewBox="0 0 64 65" fill="none" xmlns="http://www.w3.org/2000/svg">
<path d="M55.12 16.1002C54.0412 15.4647 52.812 15.1295 51.56 15.1295C50.3079 15.1295 49.0787 15.4647 48 16.1002L37.3333 22.2335C37.3309 20.9862 37.0009 19.7614 36.3762 18.6817C35.7515 17.602 34.8542 16.7054 33.774 16.0816C32.6939 15.4578 31.4688 15.1287 30.2214 15.1273C28.9741 15.1259 27.7482 15.4522 26.6667 16.0735L8.87999 26.3402C7.80047 26.9659 6.90434 27.8644 6.28139 28.9455C5.65844 30.0266 5.33054 31.2525 5.33054 32.5002C5.33054 33.748 5.65844 34.9738 6.28139 36.0549C6.90434 37.1361 7.80047 38.0345 8.87999 38.6602L26.6667 48.9269C27.7481 49.5544 28.9763 49.8849 30.2267 49.8849C31.477 49.8849 32.7052 49.5544 33.7867 48.9269C34.8693 48.305 35.7679 47.4073 36.3909 46.3253C37.0139 45.2432 37.339 44.0154 37.3333 42.7669L48 48.9269C49.0788 49.5494 50.3011 49.8802 51.5467 49.8869C52.8051 49.8871 54.04 49.5461 55.12 48.9002C56.2024 48.2848 57.1014 47.3922 57.7247 46.3143C58.3481 45.2364 58.6732 44.012 58.6667 42.7669V22.2335C58.6732 20.9884 58.3481 19.764 57.7247 18.6861C57.1014 17.6082 56.2024 16.7157 55.12 16.1002ZM32 42.7669C32.004 43.0796 31.9245 43.3878 31.7699 43.6596C31.6152 43.9315 31.3909 44.1572 31.12 44.3135C30.8467 44.4653 30.5393 44.545 30.2267 44.545C29.9141 44.545 29.6066 44.4653 29.3333 44.3135L11.5467 34.0469C11.2753 33.89 11.0501 33.6645 10.8935 33.393C10.7369 33.1215 10.6544 32.8136 10.6544 32.5002C10.6544 32.1868 10.7369 31.8789 10.8935 31.6074C11.0501 31.336 11.2753 31.1104 11.5467 30.9535L29.3333 20.6869C29.6049 20.5301 29.913 20.4475 30.2267 20.4475C30.5403 20.4475 30.8484 20.5301 31.12 20.6869C31.3909 20.8432 31.6152 21.069 31.7699 21.3408C31.9245 21.6127 32.004 21.9208 32 22.2335V42.7669ZM53.3333 42.7669C53.3273 43.0762 53.2411 43.3787 53.083 43.6447C52.925 43.9107 52.7006 44.1311 52.4318 44.2844C52.1629 44.4376 51.859 44.5184 51.5495 44.5188C51.2401 44.5193 50.9359 44.4393 50.6667 44.2869L37.3333 36.6069V28.3935L50.6667 20.7135C50.9359 20.5611 51.2401 20.4812 51.5495 20.4816C51.859 20.4821 52.1629 20.5628 52.4318 20.7161C52.7006 20.8693 52.925 21.0897 53.083 21.3557C53.2411 21.6217 53.3273 21.9242 53.3333 22.2335V42.7669Z" fill="white"/>
</svg>
